<?xml version="1.0" encoding="UTF-8"?>
<!DOCTYPE svg PUBLIC "-//W3C//DTD SVG 1.0//EN" "http://www.w3.org/TR/2001/REC-SVG-20010904/DTD/svg10.dtd">
<!-- Creator: CorelDRAW 2020 (64-Bit) -->
<svg xmlns="http://www.w3.org/2000/svg" xml:space="preserve" width="0.794346in" height="0.794346in" version="1.0" style="shape-rendering:geometricPrecision; text-rendering:geometricPrecision; image-rendering:optimizeQuality; fill-rule:evenodd; clip-rule:evenodd"
viewBox="0 0 317.16 317.16"
 xmlns:xlink="http://www.w3.org/1999/xlink"
 xmlns:xodm="http://www.corel.com/coreldraw/odm/2003">
 <defs>
  <style type="text/css">
   <![CDATA[
    .str1 {stroke:#FEFEFE;stroke-width:2.77;stroke-miterlimit:2.61313}
    .str0 {stroke:#E31E24;stroke-width:2.77;stroke-miterlimit:2.61313}
    .fil2 {fill:none}
    .fil1 {fill:#FEFEFE}
    .fil0 {fill:#E31E24}
   ]]>
  </style>
    <clipPath id="id0">
     <path d="M104.32 27.58l54.26 0 54.26 0 38.37 38.37 38.37 38.37 0 54.26 0 54.26 -38.37 38.37 -38.37 38.37 -54.26 0 -54.26 0 -38.37 -38.37 -38.37 -38.37 0 -54.26 0 -54.26 38.37 -38.37 38.37 -38.37z"/>
    </clipPath>
 </defs>
 <g id="Layer_x0020_1">
  <metadata id="CorelCorpID_0Corel-Layer"/>
  <g id="hafihime_x0020_logo.cdr">
   <polygon class="fil0 str0" points="93.47,1.39 158.58,1.39 223.7,1.39 269.74,47.43 315.78,93.47 315.78,158.58 315.78,223.7 269.74,269.74 223.7,315.78 158.58,315.78 93.47,315.78 47.43,269.74 1.39,223.69 1.39,158.58 1.39,93.47 47.43,47.43 "/>
   <polygon class="fil0" points="104.32,27.58 158.58,27.58 212.85,27.58 251.22,65.95 289.59,104.32 289.59,158.58 289.59,212.85 251.22,251.22 212.85,289.59 158.58,289.59 104.32,289.59 65.95,251.22 27.58,212.85 27.58,158.58 27.58,104.32 65.95,65.95 "/>
   <g style="clip-path:url(#id0)">
    <g>
     <rect class="fil1 str1" x="27.58" y="96.88" width="38.37" height="192.71"/>
     <rect class="fil1 str1" x="251.22" y="96.4" width="38.37" height="192.71"/>
     <rect class="fil1 str1" x="102.12" y="-15.82" width="38.37" height="305.41"/>
     <rect class="fil1 str1" x="176.67" y="-15.82" width="38.37" height="305.41"/>
     <g>
      <rect class="fil1 str1" transform="matrix(0.096689 -0.096689 0.096689 0.096689 -58.4254 19.6438)" width="280.61" height="2233.54"/>
      <rect class="fil1 str1" transform="matrix(0.096689 0.096689 -0.096689 0.096689 348.457 -7.48873)" width="280.61" height="2233.54"/>
     </g>
    </g>
   </g>
   <polygon class="fil2 str0" points="104.32,27.58 158.58,27.58 212.85,27.58 251.22,65.95 289.59,104.32 289.59,158.58 289.59,212.85 251.22,251.22 212.85,289.59 158.58,289.59 104.32,289.59 65.95,251.22 27.58,212.85 27.58,158.58 27.58,104.32 65.95,65.95 "/>
  </g>
 </g>
</svg>
