<?xml version="1.0" encoding="UTF-8"?>
<!DOCTYPE svg PUBLIC "-//W3C//DTD SVG 1.0//EN" "http://www.w3.org/TR/2001/REC-SVG-20010904/DTD/svg10.dtd">
<!-- Creator: CorelDRAW 2020 (64-Bit) -->
<svg xmlns="http://www.w3.org/2000/svg" xml:space="preserve" width="8.26772in" height="11.6929in" version="1.0" style="shape-rendering:geometricPrecision; text-rendering:geometricPrecision; image-rendering:optimizeQuality; fill-rule:evenodd; clip-rule:evenodd"
viewBox="0 0 8267.72 11692.91"
 xmlns:xlink="http://www.w3.org/1999/xlink"
 xmlns:xodm="http://www.corel.com/coreldraw/odm/2003">
 <defs>
  <style type="text/css">
   <![CDATA[
    .str1 {stroke:#FEFEFE;stroke-width:6.94;stroke-miterlimit:2.61313}
    .str0 {stroke:#E31E24;stroke-width:6.94;stroke-miterlimit:2.61313}
    .fil2 {fill:none}
    .fil1 {fill:#FEFEFE}
    .fil0 {fill:#E31E24}
    .fil3 {fill:#2B2A29;fill-rule:nonzero}
   ]]>
  </style>
    <clipPath id="id0">
     <path d="M3400.39 5327l135.91 0 135.91 0 96.1 96.1 96.1 96.1 0 135.91 0 135.91 -96.1 96.1 -96.1 96.1 -135.91 0 -135.91 0 -96.1 -96.1 -96.1 -96.1 0 -135.91 0 -135.91 96.1 -96.1 96.1 -96.1z"/>
    </clipPath>
 </defs>
 <g id="Layer_x0020_1">
  <metadata id="CorelCorpID_0Corel-Layer"/>
  <g id="hafihime_x0020_logo.cdr">
   <polygon class="fil0 str0" points="3373.22,5261.4 3536.3,5261.4 3699.38,5261.4 3814.69,5376.71 3930,5492.03 3930,5655.1 3930,5818.18 3814.69,5933.49 3699.38,6048.8 3536.3,6048.8 3373.22,6048.8 3257.91,5933.49 3142.6,5818.18 3142.6,5655.1 3142.6,5492.03 3257.91,5376.71 "/>
   <polygon class="fil0" points="3400.39,5327 3536.3,5327 3672.2,5327 3768.31,5423.09 3864.41,5519.2 3864.41,5655.1 3864.41,5791.01 3768.31,5887.11 3672.2,5983.21 3536.3,5983.21 3400.39,5983.21 3304.29,5887.11 3208.19,5791.01 3208.19,5655.1 3208.19,5519.2 3304.29,5423.09 "/>
   <g style="clip-path:url(#id0)">
    <g>
     <rect class="fil1 str1" x="3208.19" y="5500.57" width="96.1" height="482.64"/>
     <rect class="fil1 str1" x="3768.31" y="5499.37" width="96.1" height="482.64"/>
     <rect class="fil1 str1" x="3394.9" y="5218.3" width="96.1" height="764.91"/>
     <rect class="fil1 str1" x="3581.6" y="5218.3" width="96.1" height="764.91"/>
     <g>
      <rect class="fil1 str1" transform="matrix(0.096689 -0.096689 0.096689 0.096689 2992.8 5307.13)" width="702.81" height="5593.97"/>
      <rect class="fil1 str1" transform="matrix(0.096689 0.096689 -0.096689 0.096689 4011.85 5239.17)" width="702.81" height="5593.97"/>
     </g>
    </g>
   </g>
   <polygon class="fil2 str0" points="3400.39,5327 3536.3,5327 3672.2,5327 3768.31,5423.09 3864.41,5519.2 3864.41,5655.1 3864.41,5791.01 3768.31,5887.11 3672.2,5983.21 3536.3,5983.21 3400.39,5983.21 3304.29,5887.11 3208.19,5791.01 3208.19,5655.1 3208.19,5519.2 3304.29,5423.09 "/>
  </g>
  <polygon class="fil3" points="4014.49,5884.74 4014.49,5425.46 4075.43,5425.46 4075.43,5614.69 4312.77,5614.69 4312.77,5425.46 4373.71,5425.46 4373.71,5884.74 4312.77,5884.74 4312.77,5668.57 4075.43,5668.57 4075.43,5884.74 "/>
  <path id="1" class="fil3" d="M4424.81 5884.74l176.19 -459.28 66.82 0 186.98 459.28 -69.17 0 -53.13 -139.2 -193.4 0 -49.82 139.2 -64.46 0zm132.14 -188.59l156.52 0 -47.89 -127.33c-14.43,-38.7 -25.34,-70.67 -32.93,-95.9 -6.31,29.93 -14.75,59.33 -25.34,88.41l-50.35 134.81z"/>
  <polygon id="2" class="fil3" points="4906.22,5884.74 4906.22,5425.46 5216.05,5425.46 5216.05,5479.34 4967.17,5479.34 4967.17,5622.39 5182.69,5622.39 5182.69,5676.27 4967.17,5676.27 4967.17,5884.74 "/>
  <polygon id="3" class="fil3" points="5305.1,5884.74 5305.1,5425.46 5366.04,5425.46 5366.04,5884.74 "/>
  <polygon id="4" class="fil3" points="5475.62,5884.74 5475.62,5425.46 5536.56,5425.46 5536.56,5614.69 5773.9,5614.69 5773.9,5425.46 5834.84,5425.46 5834.84,5884.74 5773.9,5884.74 5773.9,5668.57 5536.56,5668.57 5536.56,5884.74 "/>
  <polygon id="5" class="fil3" points="5946.56,5884.74 5946.56,5425.46 6007.5,5425.46 6007.5,5884.74 "/>
  <path id="6" class="fil3" d="M6113.23 5884.74l0 -459.28 91.09 0 108.62 325.11c10.05,30.26 17.32,52.92 21.92,68 5.24,-16.68 13.47,-41.27 24.59,-73.66l110.54 -319.44 81.36 0 0 459.28 -58.37 0 0 -384.23 -134.06 384.23 -54.74 0 -132.57 -391.29 0 391.29 -58.37 0z"/>
  <polygon id="7" class="fil3" points="6650.13,5884.74 6650.13,5425.46 6981.76,5425.46 6981.76,5479.34 6711.07,5479.34 6711.07,5620.46 6964.44,5620.46 6964.44,5674.35 6711.07,5674.35 6711.07,5830.86 6992.67,5830.86 6992.67,5884.74 "/>
 </g>
</svg>
